<svg width="82" height="48" viewBox="0 0 82 48" fill="none" xmlns="http://www.w3.org/2000/svg">
<g filter="url(#filter0_f)">
<rect x="7" y="14" width="34" height="34" rx="2" fill="url(#paint0_linear)" fill-opacity="0.3"/>
<rect x="7" y="14" width="34" height="34" rx="2" fill="white" fill-opacity="0.05"/>
</g>
<rect width="48" height="48" rx="4" fill="url(#paint1_linear)"/>
<path fill-rule="evenodd" clip-rule="evenodd" d="M37 13C37 11.3431 35.6569 10 34 10H22.5379C19.8652 10 18.5267 13.2314 20.4166 15.1213L24.2009 18.9057L13.9246 29.182C12.753 30.3536 12.753 32.253 13.9246 33.4246C15.0962 34.5962 16.9957 34.5962 18.1673 33.4246L28.4436 23.1483L31.8787 26.5834C33.7686 28.4733 37 27.1348 37 24.4621V13Z" fill="white"/>
<defs>
<filter id="filter0_f" x="-33.7742" y="-26.7742" width="115.548" height="115.548" filterUnits="userSpaceOnUse" color-interpolation-filters="sRGB">
<feFlood flood-opacity="0" result="BackgroundImageFix"/>
<feBlend mode="normal" in="SourceGraphic" in2="BackgroundImageFix" result="shape"/>
<feGaussianBlur stdDeviation="20.3871" result="effect1_foregroundBlur"/>
</filter>
<linearGradient id="paint0_linear" x1="58" y1="31" x2="24" y2="-3" gradientUnits="userSpaceOnUse">
<stop stop-color="#1BCEDF"/>
<stop offset="1" stop-color="#5B247A"/>
</linearGradient>
<linearGradient id="paint1_linear" x1="72" y1="24" x2="24" y2="-24" gradientUnits="userSpaceOnUse">
<stop stop-color="#17EAD9" stop-opacity="0.1"/>
<stop offset="0.340848" stop-color="#22D9DB"/>
<stop offset="1" stop-color="#6078EA"/>
</linearGradient>
</defs>
</svg>
